<?xml version="1.0" encoding="UTF-8" standalone="no"?>
<!-- Created with Inkscape (http://www.inkscape.org/) -->

<svg
   version="1.1"
   id="svg1"
   width="1735"
   height="326"
   viewBox="0 0 1735 326"
   sodipodi:docname="logo.svg"
   inkscape:version="1.4.2 (f4327f4, 2025-05-13)"
   xmlns:inkscape="http://www.inkscape.org/namespaces/inkscape"
   xmlns:sodipodi="http://sodipodi.sourceforge.net/DTD/sodipodi-0.dtd"
   xmlns="http://www.w3.org/2000/svg"
   xmlns:svg="http://www.w3.org/2000/svg">
  <defs
     id="defs1" />
  <sodipodi:namedview
     id="namedview1"
     pagecolor="#505050"
     bordercolor="#ffffff"
     borderopacity="1"
     inkscape:showpageshadow="0"
     inkscape:pageopacity="0"
     inkscape:pagecheckerboard="1"
     inkscape:deskcolor="#505050"
     inkscape:zoom="0.71008646"
     inkscape:cx="868.20414"
     inkscape:cy="163.36039"
     inkscape:window-width="1366"
     inkscape:window-height="711"
     inkscape:window-x="-8"
     inkscape:window-y="-8"
     inkscape:window-maximized="1"
     inkscape:current-layer="g1" />
  <g
     inkscape:groupmode="layer"
     inkscape:label="Image"
     id="g1">
    <path
       style="fill:#2196f3;fill-opacity:1"
       d="m 1660.5,324.95886 c -14.2371,-0.59263 -20.9292,-2.59017 -23.8375,-7.11532 -1.85,-2.87853 -3.9582,-13.34543 -3.4999,-17.37637 L 1633.5,297.5 1644,297.20842 c 13.0659,-0.36284 15,0.0611 15,3.28758 0,1.50106 0.9483,3.07926 2.436,4.05405 2.0794,1.36247 5.5321,1.54886 23.5822,1.27306 19.5715,-0.29905 21.2517,-0.46765 22.5639,-2.26424 1.926,-2.63668 1.7815,-4.88821 -0.4937,-7.69809 -1.8996,-2.346 -2.089,-2.36543 -30.25,-3.10444 -15.5861,-0.40901 -29.7877,-0.98941 -31.559,-1.28979 -7.9177,-1.34267 -12.2794,-9.70551 -12.2794,-23.54387 0,-9.29655 2.7554,-17.87714 6.5361,-20.35438 1.3529,-0.88642 5.9482,-2.37457 10.2118,-3.30699 10.4865,-2.2933 58.6355,-2.52508 67.611,-0.32547 9.7164,2.38119 13.623,8.05809 13.6355,19.81416 L 1731,269 h -12.375 -12.375 l -0.5904,-2.95215 c -0.9135,-4.56712 -5.7278,-5.42563 -25.6005,-4.56512 -9.0424,0.39154 -17.4799,1.10697 -18.75,1.58983 -3.0188,1.14777 -3.133,5.87111 -0.2061,8.52245 1.9332,1.75107 4.3772,1.94539 30.25,2.40499 26.9881,0.47941 28.3432,0.59659 32.9111,2.84605 6.9697,3.43213 9.9839,9.03034 10.5326,19.56184 0.4714,9.04721 -0.6893,14.6496 -4.0796,19.69107 -4.5384,6.74876 -12.9713,8.66033 -40.2171,9.11645 -9.35,0.15652 -22.85,0.0411 -30,-0.25655 z M 29.611364,314.05398 C 27.075114,308.00822 25,302.80837 25,302.49877 25,302.18916 22.785312,296.66278 20.078472,290.21792 10.964684,268.51843 7.6770349,260.53282 4.9618306,253.5 3.4754368,249.65 1.9278098,245.7125 1.5226594,244.75 0.84215077,243.13334 1.8153589,243 14.295186,243 H 27.80435 l 1.010684,2.75 c 5.597947,15.23162 18.118205,47.76364 20.455592,53.15079 l 1.475541,3.4008 3.032005,-9.4008 C 56.770678,283.62247 69.082957,248.14644 70.489343,244.75 71.134735,243.19137 72.883844,243 86.484087,243 H 101.7542 l 9.1229,27.45522 c 5.01759,15.10037 9.1229,28.15037 9.1229,29 0,5.34114 3.87513,-2.93641 15.89613,-33.95522 3.41034,-8.8 6.84657,-17.4625 7.63607,-19.25 l 1.43544,-3.25 h 13.01618 c 7.1589,0 13.01618,0.17142 13.01618,0.38094 0,0.84691 -5.39412,14.67386 -9.01912,23.11906 -2.12473,4.95 -6.15458,14.625 -8.95523,21.5 -2.80065,6.875 -7.43054,18.0125 -10.28863,24.75 L 137.54048,325 h -17.2317 -17.23169 l -1.09261,-4.25 C 101.38355,318.4125 98.951841,310.425 96.580681,303 94.209522,295.575 90.999199,285.3375 89.44663,280.25 87.894061,275.1625 86.358807,271 86.034954,271 85.4747,271 74.949389,302.63716 70.564953,317.5 l -2.064953,7 -17.138636,0.27314 -17.138635,0.27313 z M 238,323.69117 c 0,-0.71985 1.575,-3.92437 3.5,-7.12115 1.925,-3.19678 3.50116,-6.09531 3.50257,-6.44117 0.001,-0.34587 1.63318,-3.32885 3.62614,-6.62885 1.99296,-3.3 5.07815,-8.7 6.85598,-12 1.77783,-3.3 5.23979,-9.6 7.69324,-14 2.45346,-4.4 7.08369,-12.725 10.28941,-18.5 3.20572,-5.775 6.70009,-11.74796 7.76527,-13.27325 l 1.93669,-2.77325 17.04813,0.27325 17.04813,0.27325 3.19681,6 c 1.75825,3.3 6.05132,11.175 9.54016,17.5 3.48885,6.325 7.54351,13.75 9.01037,16.5 7.25019,13.59234 16.33047,30.11309 17.05686,31.03342 0.4486,0.56839 1.72544,3.15589 2.8374,5.75 L 360.92893,325 H 346.99031 333.0517 l -4.11623,-7.5 -4.11624,-7.5 H 299.5 274.18077 l -4.11624,7.5 -4.11623,7.5 H 251.97415 C 241.12651,325 238,324.70717 238,323.69117 Z M 313.2667,288.25 c -0.93552,-2.0625 -2.45304,-4.875 -3.37226,-6.25 -0.91923,-1.375 -3.54269,-6.2125 -5.82991,-10.75 -2.28722,-4.5375 -4.33886,-8.25 -4.55919,-8.25 -0.22033,0 -2.52071,3.9375 -5.11195,8.75 -2.59124,4.8125 -6.20068,11.3375 -8.02097,14.5 L 283.0628,292 h 15.95242 15.95242 z m 121.39997,36.08333 C 434.3,323.96667 434,305.51667 434,283.33333 V 243 h 13 13 v 30 30 h 28 28 v 11 11 h -40.33333 c -22.18334,0 -40.63334,-0.3 -41,-0.66667 z M 589,284 v -41 h 13 13 v 30 30 h 27.5 27.5 v 11 11 H 629.5 589 Z m 154,0 v -41 l 37.25,0.0245 c 20.60001,0.0135 39.26141,0.46411 41.75,1.00809 2.475,0.541 5.50425,1.2115 6.73166,1.49 4.39867,0.99805 9.18533,6.39026 10.94856,12.33362 2.28813,7.71266 2.24462,23.70038 -0.0861,31.64384 -3.90267,13.30076 -7.82798,14.66651 -43.84409,15.25485 L 769,305.19183 V 315.09591 325 h -13 -13 z m 70.09,-2.86078 c 2.78365,-3.44062 2.63571,-11.73783 -0.26431,-14.82477 -2.1378,-2.27557 -2.52413,-2.31445 -23,-2.31445 H 769 v 10.0724 10.07241 l 21.09,-0.32241 c 20.77644,-0.31761 21.11839,-0.3575 23,-2.68318 z M 912,324.07957 c 0,-0.53644 2.31655,-5.1613 5.14788,-10.27746 2.83133,-5.11616 7.24589,-13.12711 9.81013,-17.80211 2.56423,-4.675 9.32834,-16.825 15.03135,-27 5.70301,-10.175 11.30095,-20.18379 12.43987,-22.24175 l 2.07077,-3.74175 17.15823,-0.008 17.15823,-0.008 3.75373,6.75 c 2.06455,3.7125 5.19154,9.45 6.94891,12.75 1.7573,3.3 5.8006,10.725 8.9851,16.5 3.1845,5.775 7.2448,13.2 9.0229,16.5 1.7781,3.3 5.9869,11.09189 9.3529,17.31531 3.366,6.22342 6.12,11.51092 6.12,11.75 0,0.23908 -6.4263,0.43469 -14.2807,0.43469 h -14.2807 l -3.7195,-7.51688 -3.71943,-7.51688 -25.65608,0.26688 -25.65607,0.26688 -3.75644,7 -3.75644,7 -14.08732,0.27746 C 917.41018,324.94836 912,324.68034 912,324.07957 Z M 985.59277,285.25 c -1.8878,-3.7125 -5.44652,-10.25675 -7.90827,-14.54277 l -4.47591,-7.79277 -4.68656,8.59761 C 962.12701,283.24389 958,291.1235 958,291.60155 958,291.8207 964.98066,292 973.51257,292 h 15.51257 z m 123.10233,39.11175 C 1108.3128,323.97946 1108,305.51667 1108,283.33333 V 243 l 37.25,0.0174 c 48.8724,0.0228 52.9874,0.823 58.562,11.38829 2.547,4.8272 2.6879,5.82851 2.6864,19.09435 -0,12.53591 -0.2465,14.54158 -2.3425,19.1787 -4.8005,10.62031 -7.6291,11.42482 -42.371,12.05129 l -26.715,0.48172 -0.285,9.64415 -0.2849,9.64414 -12.5549,0.27842 c -6.9052,0.15313 -12.8677,-0.0344 -13.25,-0.41667 z m 67.2271,-41.48447 c 5.5852,-1.94703 7.1711,-11.87493 2.6233,-16.42273 -2.4468,-2.44677 -2.5197,-2.45455 -23,-2.45455 H 1135 v 10 10 h 18.8508 c 11.3617,0 20.1302,-0.44603 22.0714,-1.12272 z m 107.7545,41.46612 C 1283.3045,323.9712 1283,305.51667 1283,283.33333 V 243 h 46.0362 46.0362 l -0.2862,9.75 -0.2862,9.75 -32.75,0.26366 -32.75,0.26367 V 269.01366 275 h 30.5 30.5 v 8.5 8.5 h -30.5 -30.5 v 6.5 6.5 h 33.0362 33.0362 l -0.2862,9.75 -0.2862,9.75 -45.0733,0.26007 c -24.7903,0.14304 -45.3778,-0.0445 -45.75,-0.41667 z M 1452,284 v -41 l 41.25,0.0119 c 50.5058,0.0145 53.2735,0.49616 58.7821,10.2292 2.0018,3.53692 2.4763,5.98004 2.7989,14.41121 0.238,6.21778 -0.072,11.54694 -0.7991,13.75094 -1.612,4.88445 -6.34,9.37635 -10.7375,10.20132 l -3.6277,0.68057 5.2406,1.95493 c 7.8603,2.93213 9.0843,5.55964 9.089,19.50996 l 0,11.25 h -12.8974 -12.8974 l -0.3527,-8.58843 C 1527.327,303.61512 1528.1786,304 1500.3892,304 H 1478 v 10.5 10.5 h -13 -13 z m 75,-3 c 1.5152,-1.51515 2,-3.33333 2,-7.5 0,-4.16667 -0.4848,-5.98485 -2,-7.5 -1.8865,-1.88652 -3.3333,-2 -25.5,-2 H 1478 v 9.5 9.5 h 23.5 c 22.1667,0 23.6135,-0.11348 25.5,-2 z M 963.75,213.9199 c -1.59546,-0.92927 -1.75,-3.30888 -1.75,-26.94654 0,-25.80405 0.0107,-25.93394 2.25,-27.33398 1.2375,-0.77369 32.08159,-12.53931 68.5424,-26.1458 36.4608,-13.60649 66.1413,-25.19235 65.9567,-25.74635 -0.1847,-0.554 -27.3163,-11.065697 -60.2924,-23.359322 C 964.1497,56.686024 965.25862,57.11576 963.47212,55.329264 962.25376,54.110904 962,49.508291 962,28.628571 962,10.339683 962.33009,3.0699132 963.2,2.2 964.11797,1.2820251 988.8839,1 1068.5776,1 c 95.3143,0 104.2933,0.1394607 105.5379,1.6392047 1.0868,1.309525 1.2936,6.5889695 1.028,26.2500003 -0.2051,15.183857 -0.7339,25.098935 -1.3806,25.885177 -0.8089,0.983347 -7.7782,1.256258 -30.5173,1.19502 -16.2079,-0.04365 -29.6823,0.13392 -29.9429,0.394598 -0.7916,0.791566 2.1489,1.998884 30.6973,12.603701 15.125,5.618458 28.328,11.014652 29.3399,11.991544 1.6886,1.630044 1.844,3.858368 1.8897,27.086145 0.047,23.90328 -0.058,25.39737 -1.8962,26.88229 -1.0704,0.86478 -14.5207,6.2491 -29.8897,11.96517 -15.369,5.71606 -28.6026,11.00356 -29.408,11.75 -1.2356,1.1452 3.3233,1.35715 29.191,1.35715 19.6097,0 30.8807,0.36481 31.281,1.01246 0.3442,0.55686 0.6535,12.33316 0.6874,26.16957 0.057,23.21202 -0.079,25.25997 -1.7579,26.48754 -1.487,1.08734 -20.6501,1.32487 -104.8783,1.30002 -68.1394,-0.0201 -103.65185,-0.37577 -104.8089,-1.04969 z m 243.7254,-1.31712 c -1.4041,-2.14285 -1.5564,-13.25793 -1.4358,-104.75 0.1149,-87.068116 0.3494,-102.6887796 1.5708,-104.60278 l 1.4357,-2.25 33.977,0 c 32.6787,0 34.0536,0.076656 35.9831,2.0062186 1.1034,1.1034203 16.7888,31.8619314 34.8564,68.3522464 18.0677,36.490315 33.3139,66.632565 33.8805,66.982775 0.5667,0.3502 1.5124,0.0558 2.1016,-0.65417 0.5893,-0.71 15.9074,-31.03152 34.0404,-67.381155 C 1404.9156,28.14773 1417.6852,3.6334503 1419.1495,2.6078328 1421.1465,1.2090883 1425.7632,1 1454.6511,1 c 28.854,0 33.412,0.2059552 34.7775,1.5714286 1.4084,1.4084 1.5714,12.3476594 1.5714,105.4432914 v 103.87187 l -2.2225,1.55671 c -1.9016,1.3319 -6.9455,1.5567 -34.9286,1.5567 -29.3696,0 -32.8784,-0.17236 -34.3956,-1.68957 -1.5262,-1.52617 -1.654,-4.49784 -1.3214,-30.72886 0.3197,-25.22124 0.1707,-29.07828 -1.133,-29.33583 -1.0673,-0.21082 -5.6917,8.12168 -16,28.8294 -8.2853,16.64374 -15.521,29.93997 -16.8838,31.0254 -2.235,1.78012 -4.4339,1.89723 -35,1.86402 -25.6383,-0.0279 -33.1426,-0.32749 -35.0811,-1.40076 -1.7781,-0.9845 -6.6593,-9.68353 -17.5,-31.1875 -8.2687,-16.4022 -15.5965,-29.98436 -16.284,-30.18257 -0.9806,-0.28272 -1.25,6.22369 -1.25,30.18775 0,29.17861 -0.087,30.59456 -1.9343,31.58334 -1.2213,0.65366 -14.1121,1.03518 -34.9769,1.03518 h -33.0427 z M 1564.5,213.3468 c -25.3797,-5.4028 -43.5,-28.38121 -43.5,-55.16255 0,-18.49743 8.3401,-33.53894 26.4769,-47.75163 l 3.9143,-3.06738 -4.4456,-3.09219 c -19.3506,-13.459519 -29.2374,-36.580854 -25.0069,-58.481171 3.9169,-20.276751 21.3321,-38.5796617 41.1544,-43.2520956 23.4248,-5.5216291 47.5054,4.0937852 61.2075,24.4402646 l 3.3739,5.009899 3.7941,-5.508857 c 8.2719,-12.010445 20.9825,-20.9709357 34.1344,-24.0634349 9.0358,-2.12464021 22.5467,-1.47083367 31.2836,1.5138378 25.873,8.8387361 42.2507,36.9556601 36.7158,63.0333251 -3.1912,15.035464 -12.3216,28.847162 -24.5565,37.147122 -2.7469,1.86343 -5.0051,3.61306 -5.0183,3.88806 -0.013,0.275 2.1127,1.84998 4.7241,3.49996 16.9839,10.73061 27.363,31.40971 25.8903,51.58278 -2.1934,30.0446 -29.4134,53.60208 -59.642,51.61715 -17.3779,-1.1411 -32.9681,-10.21669 -43.807,-25.50153 -1.6777,-2.3659 -3.2611,-4.3909 -3.5187,-4.5 -0.2575,-0.1091 -2.4579,2.50164 -4.8897,5.80164 -14.7,19.94803 -34.8317,27.83942 -58.2846,22.8468 z m 67.3349,-85.0968 c 4.4137,-6.49171 11.7946,-13.72849 17.9921,-17.64078 2.2951,-1.44887 4.173,-2.84452 4.173,-3.10144 0,-0.25692 -1.711,-1.34002 -3.8022,-2.40689 -5.4195,-2.76478 -13.2622,-10.096048 -17.7118,-16.556719 -4.1959,-6.092302 -5.6266,-6.725727 -7.2321,-3.202001 -1.84,4.038316 -12.5046,14.83946 -18.4723,18.70886 l -5.7184,3.70774 5.6505,3.75174 c 6.5678,4.36076 14.163,12.00162 18.0567,18.16504 1.5013,2.37648 2.8253,4.32168 2.9423,4.32266 0.117,9.9e-4 1.972,-2.58571 4.1222,-5.74821 z M 472.77622,211.96155 C 463.07129,210.46426 457.44854,206.60752 453.1506,198.5 l -2.6506,-5 V 107 20.5 l 2.38195,-5.270481 C 455.52072,9.3908031 460.41447,4.9377361 467.15967,2.2375098 471.13258,0.64708336 477.25632,0.5 539.5,0.5 c 72.46264,0 72.12952,-0.0193941 86.78054,5.0523176 21.14318,7.3190934 33.1879,24.7273264 35.74866,51.6675364 2.58,27.142689 -3.39032,51.293366 -16.138,65.280146 -8.94066,9.80971 -10.46564,13.10852 -8.19769,17.73307 1.79205,3.65415 5.29201,5.30773 15.22085,7.1912 7.22007,1.36962 21.62917,1.57573 110.16116,1.57573 111.09638,0 106.89414,-0.2066 114.65218,5.63669 7.88089,5.93581 11.63752,19.34073 9.30143,33.19062 -1.6911,10.02595 -5.59816,15.7072 -13.52913,19.67269 l -6,3 H 745 622.5 l -4.99537,-2.45799 c -3.79248,-1.8661 -14.88959,-12.34084 -46.08456,-43.5 C 524.24535,117.42147 525.5,119.07562 525.5,104 c 0,-8.400827 0.32691,-10.165736 2.82544,-15.253862 3.07486,-6.261808 8.20023,-10.573448 15.19382,-12.781568 2.49966,-0.789233 13.43797,-1.481532 29.39928,-1.860716 L 598.33707,73.5 l 0.92548,-2.782043 c 0.6935,-2.084715 0.52016,-3.400645 -0.69159,-5.25 L 596.95389,63 l -40.22694,0.01531 c -23.58443,0.009 -40.84752,0.407353 -41.72695,0.962921 -1.29906,0.820665 -1.56698,9.492716 -2,64.734686 -0.48821,62.28334 -0.54984,63.89481 -2.61409,68.35695 -5.58226,12.06676 -19.69652,17.65535 -37.60969,14.89168 z M 18.372063,209.16234 c -2.820365,-0.9748 -6.336078,-2.56397 -7.812696,-3.53148 C -2.939188,196.78626 -3.119686,164.72341 10.272296,154.63669 17.755904,149.00011 17.757285,149 84.312441,149 152.54939,149 150,149.25311 150,142.47848 c 0,-2.26013 -0.60713,-3.73304 -1.80242,-4.37274 -1.05384,-0.56399 -21.50847,-1.12715 -49.250001,-1.35596 C 57.297282,136.40627 50.705811,136.14039 45,134.57369 17.025898,126.89256 2.9160232,108.44122 0.59064144,76.5 -0.15854972,66.209183 1.2452828,50.410149 3.6436782,42.140464 8.485279,25.446588 17.068949,14.891796 31.361289,8.057882 48.281266,-0.03244249 34.991926,0.5 220,0.5 h 164.5 l 8.32396,2.2342152 C 416.43118,9.070577 429.63881,21.969913 435.58795,44.5 c 1.47036,5.568415 1.84061,10.578963 1.81043,24.5 -0.0338,15.57771 -0.32014,18.547767 -2.60693,27.038585 l -2.56899,9.538585 2.5399,9.46141 c 2.25327,8.39373 2.54907,11.49267 2.62124,27.46142 0.0725,16.05032 -0.17136,18.86653 -2.25171,26 -5.37041,18.41502 -15.38625,30.15926 -31.2139,36.60037 C 389.88963,210.80926 387.00596,211 314.72742,211 c -59.06711,0 -66.61501,-0.17759 -71.37934,-1.67941 -7.15245,-2.25461 -11.66454,-6.19982 -14.97292,-13.09181 -2.46355,-5.13201 -2.74937,-6.82256 -2.74384,-16.22878 0.005,-8.69209 0.39318,-11.38127 2.25389,-15.61826 2.97265,-6.76896 7.47515,-10.95683 14.39478,-13.38888 C 247.70616,149.08571 250.5867,149 309.25251,149 376.65477,149 375,149.14854 375,143.09828 c 0,-6.23708 2.67131,-5.9839 -66.53156,-6.30558 L 245.5,136.5 240.53567,134.21142 C 229.93784,129.32578 225.58579,120.81105 225.60512,105 c 0.0139,-11.337774 2.40713,-17.971464 8.45484,-23.435207 7.75529,-7.006438 7.26291,-6.959189 76.3977,-7.331198 42.15957,-0.226857 62.37062,-0.676113 63.25,-1.405937 1.78587,-1.482143 1.62112,-6.356021 -0.27909,-8.256229 C 372.0137,63.15656 356.62331,63 218.95162,63 l -152.905514,0 -1.568682,2.394111 c -1.773435,2.706605 -1.142676,7.13663 1.140903,8.012922 0.790808,0.303461 19.987697,0.597292 42.659753,0.652958 43.96703,0.10795 55.81752,0.993611 67.22192,5.023915 17.23144,6.089574 27.78634,17.053684 34.12147,35.444354 2.61576,7.59346 2.74921,8.89706 2.8123,27.47174 0.0543,15.99361 -0.26238,20.6688 -1.76126,26 -6.38209,22.69976 -21.01631,36.13564 -44.67251,41.01446 -8.88347,1.83211 -13.81572,1.958 -76,1.93976 -61.026696,-0.0179 -66.922056,-0.16539 -71.627937,-1.79188 z M 695.7175,135.97552 c -8.2808,-2.09679 -14.37147,-6.64159 -18.05908,-13.47552 -2.11201,-3.914 -2.1646,-5.01973 -2.44595,-51.426587 C 674.88326,16.77121 674.97704,15.970327 682.55204,8.3953272 688.28765,2.6597198 694.8939,0.56899519 707,0.6581131 c 10.43484,0.076815 15.75987,1.7446192 21.80136,6.8281981 8.62543,7.2578228 9.40259,12.9356028 8.96817,65.5204048 -0.39171,47.415204 -0.4483,47.837714 -7.41333,55.347864 -5.22371,5.63255 -10.81308,7.74464 -21.69335,8.19741 -5.03957,0.20972 -10.86497,-0.0497 -12.94535,-0.57647 z"
       id="path1" />
  </g>
</svg>
